<mxfile host="app.diagrams.net" modified="2024-05-02T08:31:23.023Z" agent="Mozilla/5.0 (Windows NT 10.0; Win64; x64) AppleWebKit/537.36 (KHTML, like Gecko) Chrome/124.0.0.0 Safari/537.36" etag="SCtBg61s0DUR3xkhegCP" version="24.3.1" type="device">
  <diagram name="Page-1" id="FYNW5ABjYhjpEo5CAebI">
    <mxGraphModel dx="1078" dy="573" grid="1" gridSize="10" guides="1" tooltips="1" connect="1" arrows="1" fold="1" page="1" pageScale="1" pageWidth="850" pageHeight="1100" math="0" shadow="0">
      <root>
        <mxCell id="0" />
        <mxCell id="1" parent="0" />
        <mxCell id="-BIlthm5lZ2Xe3NpGr4l-28" style="edgeStyle=orthogonalEdgeStyle;rounded=0;orthogonalLoop=1;jettySize=auto;html=1;exitX=0.5;exitY=1;exitDx=0;exitDy=0;exitPerimeter=0;entryX=0.5;entryY=0;entryDx=0;entryDy=0;" edge="1" parent="1" target="-BIlthm5lZ2Xe3NpGr4l-8">
          <mxGeometry relative="1" as="geometry">
            <mxPoint x="440" y="201" as="sourcePoint" />
          </mxGeometry>
        </mxCell>
        <mxCell id="-BIlthm5lZ2Xe3NpGr4l-30" style="edgeStyle=orthogonalEdgeStyle;rounded=0;orthogonalLoop=1;jettySize=auto;html=1;exitX=0.5;exitY=1;exitDx=0;exitDy=0;entryX=0.5;entryY=0;entryDx=0;entryDy=0;" edge="1" parent="1" source="-BIlthm5lZ2Xe3NpGr4l-5" target="-BIlthm5lZ2Xe3NpGr4l-6">
          <mxGeometry relative="1" as="geometry" />
        </mxCell>
        <mxCell id="-BIlthm5lZ2Xe3NpGr4l-5" value="LOGIN ADMIN" style="rounded=0;whiteSpace=wrap;html=1;absoluteArcSize=1;arcSize=14;strokeWidth=2;" vertex="1" parent="1">
          <mxGeometry x="320" y="361" width="240" height="80" as="geometry" />
        </mxCell>
        <mxCell id="-BIlthm5lZ2Xe3NpGr4l-31" style="edgeStyle=orthogonalEdgeStyle;rounded=0;orthogonalLoop=1;jettySize=auto;html=1;exitX=0.5;exitY=1;exitDx=0;exitDy=0;" edge="1" parent="1" source="-BIlthm5lZ2Xe3NpGr4l-6" target="-BIlthm5lZ2Xe3NpGr4l-7">
          <mxGeometry relative="1" as="geometry" />
        </mxCell>
        <mxCell id="-BIlthm5lZ2Xe3NpGr4l-6" value="&lt;div style=&quot;&quot;&gt;&lt;span style=&quot;background-color: initial;&quot;&gt;&amp;nbsp; &amp;nbsp;MASUKKAN USERNAME DAN PASSWORD&lt;/span&gt;&lt;/div&gt;" style="shape=parallelogram;html=1;strokeWidth=2;perimeter=parallelogramPerimeter;whiteSpace=wrap;rounded=0;arcSize=12;size=0.23;align=center;" vertex="1" parent="1">
          <mxGeometry x="320" y="481" width="240" height="80" as="geometry" />
        </mxCell>
        <mxCell id="-BIlthm5lZ2Xe3NpGr4l-32" style="edgeStyle=orthogonalEdgeStyle;rounded=0;orthogonalLoop=1;jettySize=auto;html=1;exitX=0.5;exitY=1;exitDx=0;exitDy=0;exitPerimeter=0;entryX=0.5;entryY=0;entryDx=0;entryDy=0;" edge="1" parent="1" source="-BIlthm5lZ2Xe3NpGr4l-7" target="-BIlthm5lZ2Xe3NpGr4l-9">
          <mxGeometry relative="1" as="geometry" />
        </mxCell>
        <mxCell id="-BIlthm5lZ2Xe3NpGr4l-64" value="BENAR" style="edgeLabel;html=1;align=center;verticalAlign=middle;resizable=0;points=[];" vertex="1" connectable="0" parent="-BIlthm5lZ2Xe3NpGr4l-32">
          <mxGeometry x="-0.2288" y="-1" relative="1" as="geometry">
            <mxPoint as="offset" />
          </mxGeometry>
        </mxCell>
        <mxCell id="-BIlthm5lZ2Xe3NpGr4l-65" style="edgeStyle=orthogonalEdgeStyle;rounded=0;orthogonalLoop=1;jettySize=auto;html=1;exitX=1;exitY=0.5;exitDx=0;exitDy=0;exitPerimeter=0;entryX=1;entryY=0.5;entryDx=0;entryDy=0;" edge="1" parent="1" source="-BIlthm5lZ2Xe3NpGr4l-7" target="-BIlthm5lZ2Xe3NpGr4l-6">
          <mxGeometry relative="1" as="geometry">
            <mxPoint x="640" y="521" as="targetPoint" />
            <Array as="points">
              <mxPoint x="620" y="641" />
              <mxPoint x="620" y="521" />
            </Array>
          </mxGeometry>
        </mxCell>
        <mxCell id="-BIlthm5lZ2Xe3NpGr4l-66" value="SALAH" style="edgeLabel;html=1;align=center;verticalAlign=middle;resizable=0;points=[];" vertex="1" connectable="0" parent="-BIlthm5lZ2Xe3NpGr4l-65">
          <mxGeometry x="-0.0889" relative="1" as="geometry">
            <mxPoint as="offset" />
          </mxGeometry>
        </mxCell>
        <mxCell id="-BIlthm5lZ2Xe3NpGr4l-7" value="&lt;div&gt;&lt;br&gt;&lt;/div&gt;USERNAME DAN PASSWORD&lt;div&gt;SUDAH BENAR?&lt;/div&gt;" style="strokeWidth=2;html=1;shape=mxgraph.flowchart.decision;whiteSpace=wrap;" vertex="1" parent="1">
          <mxGeometry x="320" y="601" width="240" height="80" as="geometry" />
        </mxCell>
        <mxCell id="-BIlthm5lZ2Xe3NpGr4l-29" style="edgeStyle=orthogonalEdgeStyle;rounded=0;orthogonalLoop=1;jettySize=auto;html=1;exitX=0.5;exitY=1;exitDx=0;exitDy=0;entryX=0.5;entryY=0;entryDx=0;entryDy=0;" edge="1" parent="1" source="-BIlthm5lZ2Xe3NpGr4l-8" target="-BIlthm5lZ2Xe3NpGr4l-5">
          <mxGeometry relative="1" as="geometry" />
        </mxCell>
        <mxCell id="-BIlthm5lZ2Xe3NpGr4l-8" value="HALAMAN BERANDA" style="rounded=0;whiteSpace=wrap;html=1;absoluteArcSize=1;arcSize=14;strokeWidth=2;" vertex="1" parent="1">
          <mxGeometry x="320" y="241" width="240" height="80" as="geometry" />
        </mxCell>
        <mxCell id="-BIlthm5lZ2Xe3NpGr4l-33" style="edgeStyle=orthogonalEdgeStyle;rounded=0;orthogonalLoop=1;jettySize=auto;html=1;exitX=0.5;exitY=1;exitDx=0;exitDy=0;entryX=0.5;entryY=0;entryDx=0;entryDy=0;" edge="1" parent="1" source="-BIlthm5lZ2Xe3NpGr4l-9" target="-BIlthm5lZ2Xe3NpGr4l-10">
          <mxGeometry relative="1" as="geometry" />
        </mxCell>
        <mxCell id="-BIlthm5lZ2Xe3NpGr4l-41" style="edgeStyle=orthogonalEdgeStyle;rounded=0;orthogonalLoop=1;jettySize=auto;html=1;" edge="1" parent="1" target="-BIlthm5lZ2Xe3NpGr4l-11">
          <mxGeometry relative="1" as="geometry">
            <mxPoint x="440" y="821" as="sourcePoint" />
          </mxGeometry>
        </mxCell>
        <mxCell id="-BIlthm5lZ2Xe3NpGr4l-9" value="HALAMAN ADMIN" style="rounded=0;whiteSpace=wrap;html=1;absoluteArcSize=1;arcSize=14;strokeWidth=2;" vertex="1" parent="1">
          <mxGeometry x="320" y="721" width="240" height="80" as="geometry" />
        </mxCell>
        <mxCell id="-BIlthm5lZ2Xe3NpGr4l-34" style="edgeStyle=orthogonalEdgeStyle;rounded=0;orthogonalLoop=1;jettySize=auto;html=1;exitX=0.5;exitY=1;exitDx=0;exitDy=0;entryX=0.5;entryY=0;entryDx=0;entryDy=0;" edge="1" parent="1" source="-BIlthm5lZ2Xe3NpGr4l-10" target="-BIlthm5lZ2Xe3NpGr4l-15">
          <mxGeometry relative="1" as="geometry" />
        </mxCell>
        <mxCell id="-BIlthm5lZ2Xe3NpGr4l-52" style="edgeStyle=orthogonalEdgeStyle;rounded=0;orthogonalLoop=1;jettySize=auto;html=1;entryX=0.5;entryY=0;entryDx=0;entryDy=0;" edge="1" parent="1" source="-BIlthm5lZ2Xe3NpGr4l-10" target="-BIlthm5lZ2Xe3NpGr4l-12">
          <mxGeometry relative="1" as="geometry">
            <Array as="points">
              <mxPoint x="440" y="821" />
              <mxPoint x="160" y="821" />
            </Array>
          </mxGeometry>
        </mxCell>
        <mxCell id="-BIlthm5lZ2Xe3NpGr4l-10" value="UPDATE" style="verticalLabelPosition=middle;verticalAlign=middle;html=1;shape=process;whiteSpace=wrap;rounded=0;size=0.14;arcSize=6;labelPosition=center;align=center;" vertex="1" parent="1">
          <mxGeometry x="320" y="841" width="240" height="80" as="geometry" />
        </mxCell>
        <mxCell id="-BIlthm5lZ2Xe3NpGr4l-35" style="edgeStyle=orthogonalEdgeStyle;rounded=0;orthogonalLoop=1;jettySize=auto;html=1;exitX=0.5;exitY=1;exitDx=0;exitDy=0;entryX=0.5;entryY=0;entryDx=0;entryDy=0;" edge="1" parent="1" source="-BIlthm5lZ2Xe3NpGr4l-11" target="-BIlthm5lZ2Xe3NpGr4l-17">
          <mxGeometry relative="1" as="geometry" />
        </mxCell>
        <mxCell id="-BIlthm5lZ2Xe3NpGr4l-11" value="DELETE" style="verticalLabelPosition=middle;verticalAlign=middle;html=1;shape=process;whiteSpace=wrap;rounded=0;size=0.14;arcSize=6;labelPosition=center;align=center;" vertex="1" parent="1">
          <mxGeometry x="600" y="841" width="240" height="80" as="geometry" />
        </mxCell>
        <mxCell id="-BIlthm5lZ2Xe3NpGr4l-42" style="edgeStyle=orthogonalEdgeStyle;rounded=0;orthogonalLoop=1;jettySize=auto;html=1;exitX=0.5;exitY=1;exitDx=0;exitDy=0;" edge="1" parent="1" source="-BIlthm5lZ2Xe3NpGr4l-12" target="-BIlthm5lZ2Xe3NpGr4l-14">
          <mxGeometry relative="1" as="geometry" />
        </mxCell>
        <mxCell id="-BIlthm5lZ2Xe3NpGr4l-12" value="CREATE" style="verticalLabelPosition=middle;verticalAlign=middle;html=1;shape=process;whiteSpace=wrap;rounded=0;size=0.125;arcSize=6;labelPosition=center;align=center;" vertex="1" parent="1">
          <mxGeometry x="40" y="841" width="240" height="80" as="geometry" />
        </mxCell>
        <mxCell id="-BIlthm5lZ2Xe3NpGr4l-43" style="edgeStyle=orthogonalEdgeStyle;rounded=0;orthogonalLoop=1;jettySize=auto;html=1;exitX=0.5;exitY=1;exitDx=0;exitDy=0;entryX=0.5;entryY=0;entryDx=0;entryDy=0;" edge="1" parent="1" source="-BIlthm5lZ2Xe3NpGr4l-14" target="-BIlthm5lZ2Xe3NpGr4l-20">
          <mxGeometry relative="1" as="geometry" />
        </mxCell>
        <mxCell id="-BIlthm5lZ2Xe3NpGr4l-14" value="jenis_helm&lt;br&gt;merek_helm&lt;br&gt;nama_helm&lt;br&gt;&lt;div&gt;warna_helm&lt;/div&gt;&lt;div&gt;motif_helm&lt;/div&gt;&lt;div&gt;ukuran_helm&lt;/div&gt;&lt;div&gt;harga_helm&lt;/div&gt;&lt;div&gt;jumlah_stok&lt;/div&gt;" style="shape=parallelogram;strokeWidth=2;perimeter=parallelogramPerimeter;rounded=0;arcSize=12;size=0.23;align=center;verticalAlign=middle;whiteSpace=wrap;html=1;horizontal=1;" vertex="1" parent="1">
          <mxGeometry x="40" y="961" width="240" height="120.5" as="geometry" />
        </mxCell>
        <mxCell id="-BIlthm5lZ2Xe3NpGr4l-37" style="edgeStyle=orthogonalEdgeStyle;rounded=0;orthogonalLoop=1;jettySize=auto;html=1;exitX=0.5;exitY=1;exitDx=0;exitDy=0;entryX=0.5;entryY=0;entryDx=0;entryDy=0;" edge="1" parent="1" source="-BIlthm5lZ2Xe3NpGr4l-15" target="-BIlthm5lZ2Xe3NpGr4l-19">
          <mxGeometry relative="1" as="geometry" />
        </mxCell>
        <mxCell id="-BIlthm5lZ2Xe3NpGr4l-15" value="jenis_helm&lt;br&gt;merek_helm&lt;br&gt;nama_helm&lt;br&gt;&lt;div&gt;warna_helm&lt;/div&gt;&lt;div&gt;motif_helm&lt;/div&gt;&lt;div&gt;ukuran_helm&lt;/div&gt;&lt;div&gt;harga_helm&lt;/div&gt;" style="shape=parallelogram;strokeWidth=2;perimeter=parallelogramPerimeter;rounded=0;arcSize=12;size=0.23;align=center;verticalAlign=middle;whiteSpace=wrap;html=1;horizontal=1;" vertex="1" parent="1">
          <mxGeometry x="320" y="961" width="240" height="120" as="geometry" />
        </mxCell>
        <mxCell id="-BIlthm5lZ2Xe3NpGr4l-36" style="edgeStyle=orthogonalEdgeStyle;rounded=0;orthogonalLoop=1;jettySize=auto;html=1;exitX=0.5;exitY=1;exitDx=0;exitDy=0;entryX=0.5;entryY=0;entryDx=0;entryDy=0;" edge="1" parent="1" source="-BIlthm5lZ2Xe3NpGr4l-17" target="-BIlthm5lZ2Xe3NpGr4l-18">
          <mxGeometry relative="1" as="geometry" />
        </mxCell>
        <mxCell id="-BIlthm5lZ2Xe3NpGr4l-17" value="SELECT" style="rounded=0;whiteSpace=wrap;html=1;absoluteArcSize=1;arcSize=14;strokeWidth=2;" vertex="1" parent="1">
          <mxGeometry x="600" y="981" width="240" height="80" as="geometry" />
        </mxCell>
        <mxCell id="-BIlthm5lZ2Xe3NpGr4l-18" value="HAPUS" style="rounded=0;whiteSpace=wrap;html=1;absoluteArcSize=1;arcSize=14;strokeWidth=2;" vertex="1" parent="1">
          <mxGeometry x="600" y="1121" width="240" height="80" as="geometry" />
        </mxCell>
        <mxCell id="-BIlthm5lZ2Xe3NpGr4l-19" value="SIMPAN" style="rounded=0;whiteSpace=wrap;html=1;absoluteArcSize=1;arcSize=14;strokeWidth=2;" vertex="1" parent="1">
          <mxGeometry x="320" y="1121" width="240" height="80" as="geometry" />
        </mxCell>
        <mxCell id="-BIlthm5lZ2Xe3NpGr4l-20" value="SIMPAN" style="rounded=0;whiteSpace=wrap;html=1;absoluteArcSize=1;arcSize=14;strokeWidth=2;" vertex="1" parent="1">
          <mxGeometry x="40" y="1121" width="240" height="80" as="geometry" />
        </mxCell>
        <mxCell id="-BIlthm5lZ2Xe3NpGr4l-45" style="edgeStyle=orthogonalEdgeStyle;rounded=0;orthogonalLoop=1;jettySize=auto;html=1;exitX=0.5;exitY=1;exitDx=0;exitDy=0;exitPerimeter=0;entryX=0.5;entryY=0;entryDx=0;entryDy=0;" edge="1" parent="1" source="-BIlthm5lZ2Xe3NpGr4l-21" target="-BIlthm5lZ2Xe3NpGr4l-24">
          <mxGeometry relative="1" as="geometry" />
        </mxCell>
        <mxCell id="-BIlthm5lZ2Xe3NpGr4l-21" value="DATABASE HELM" style="strokeWidth=2;html=1;shape=mxgraph.flowchart.database;whiteSpace=wrap;" vertex="1" parent="1">
          <mxGeometry x="40" y="1241" width="240" height="80" as="geometry" />
        </mxCell>
        <mxCell id="-BIlthm5lZ2Xe3NpGr4l-39" style="edgeStyle=orthogonalEdgeStyle;rounded=0;orthogonalLoop=1;jettySize=auto;html=1;exitX=0.5;exitY=1;exitDx=0;exitDy=0;exitPerimeter=0;entryX=0.5;entryY=0;entryDx=0;entryDy=0;" edge="1" parent="1" source="-BIlthm5lZ2Xe3NpGr4l-22" target="-BIlthm5lZ2Xe3NpGr4l-25">
          <mxGeometry relative="1" as="geometry" />
        </mxCell>
        <mxCell id="-BIlthm5lZ2Xe3NpGr4l-22" value="DATABASE HELM" style="strokeWidth=2;html=1;shape=mxgraph.flowchart.database;whiteSpace=wrap;" vertex="1" parent="1">
          <mxGeometry x="320" y="1241" width="240" height="80" as="geometry" />
        </mxCell>
        <mxCell id="-BIlthm5lZ2Xe3NpGr4l-48" style="edgeStyle=orthogonalEdgeStyle;rounded=0;orthogonalLoop=1;jettySize=auto;html=1;exitX=0.5;exitY=1;exitDx=0;exitDy=0;exitPerimeter=0;entryX=0.5;entryY=0;entryDx=0;entryDy=0;" edge="1" parent="1" source="-BIlthm5lZ2Xe3NpGr4l-23" target="-BIlthm5lZ2Xe3NpGr4l-26">
          <mxGeometry relative="1" as="geometry" />
        </mxCell>
        <mxCell id="-BIlthm5lZ2Xe3NpGr4l-23" value="DATABASE HELM" style="strokeWidth=2;html=1;shape=mxgraph.flowchart.database;whiteSpace=wrap;" vertex="1" parent="1">
          <mxGeometry x="600" y="1241" width="240" height="80" as="geometry" />
        </mxCell>
        <mxCell id="-BIlthm5lZ2Xe3NpGr4l-59" style="edgeStyle=orthogonalEdgeStyle;rounded=0;orthogonalLoop=1;jettySize=auto;html=1;exitX=0.5;exitY=1;exitDx=0;exitDy=0;" edge="1" parent="1" source="-BIlthm5lZ2Xe3NpGr4l-24">
          <mxGeometry relative="1" as="geometry">
            <mxPoint x="440" y="1481" as="targetPoint" />
            <Array as="points">
              <mxPoint x="160" y="1461" />
              <mxPoint x="440" y="1461" />
            </Array>
          </mxGeometry>
        </mxCell>
        <mxCell id="-BIlthm5lZ2Xe3NpGr4l-24" value="Message &quot;Insert Successfully&quot;" style="rounded=0;whiteSpace=wrap;html=1;absoluteArcSize=1;arcSize=14;strokeWidth=2;" vertex="1" parent="1">
          <mxGeometry x="40" y="1361" width="240" height="80" as="geometry" />
        </mxCell>
        <mxCell id="-BIlthm5lZ2Xe3NpGr4l-25" value="Message &quot;Update Successfully&quot;" style="rounded=0;whiteSpace=wrap;html=1;absoluteArcSize=1;arcSize=14;strokeWidth=2;" vertex="1" parent="1">
          <mxGeometry x="320" y="1361" width="240" height="80" as="geometry" />
        </mxCell>
        <mxCell id="-BIlthm5lZ2Xe3NpGr4l-62" style="edgeStyle=orthogonalEdgeStyle;rounded=0;orthogonalLoop=1;jettySize=auto;html=1;exitX=0.5;exitY=1;exitDx=0;exitDy=0;entryX=0.5;entryY=0;entryDx=0;entryDy=0;entryPerimeter=0;" edge="1" parent="1" source="-BIlthm5lZ2Xe3NpGr4l-26">
          <mxGeometry relative="1" as="geometry">
            <mxPoint x="440" y="1481" as="targetPoint" />
            <Array as="points">
              <mxPoint x="720" y="1461" />
              <mxPoint x="440" y="1461" />
            </Array>
          </mxGeometry>
        </mxCell>
        <mxCell id="-BIlthm5lZ2Xe3NpGr4l-26" value="Message &quot;Delete Successfully&quot;" style="rounded=0;whiteSpace=wrap;html=1;absoluteArcSize=1;arcSize=14;strokeWidth=2;" vertex="1" parent="1">
          <mxGeometry x="600" y="1361" width="240" height="80" as="geometry" />
        </mxCell>
        <mxCell id="-BIlthm5lZ2Xe3NpGr4l-38" style="edgeStyle=orthogonalEdgeStyle;rounded=0;orthogonalLoop=1;jettySize=auto;html=1;exitX=0.5;exitY=1;exitDx=0;exitDy=0;entryX=0.5;entryY=0;entryDx=0;entryDy=0;entryPerimeter=0;" edge="1" parent="1" source="-BIlthm5lZ2Xe3NpGr4l-19" target="-BIlthm5lZ2Xe3NpGr4l-22">
          <mxGeometry relative="1" as="geometry" />
        </mxCell>
        <mxCell id="-BIlthm5lZ2Xe3NpGr4l-40" style="edgeStyle=orthogonalEdgeStyle;rounded=0;orthogonalLoop=1;jettySize=auto;html=1;exitX=0.5;exitY=1;exitDx=0;exitDy=0;entryX=0.5;entryY=0;entryDx=0;entryDy=0;entryPerimeter=0;" edge="1" parent="1" source="-BIlthm5lZ2Xe3NpGr4l-25">
          <mxGeometry relative="1" as="geometry">
            <mxPoint x="440" y="1481" as="targetPoint" />
            <Array as="points">
              <mxPoint x="440" y="1461" />
              <mxPoint x="440" y="1461" />
            </Array>
          </mxGeometry>
        </mxCell>
        <mxCell id="-BIlthm5lZ2Xe3NpGr4l-44" style="edgeStyle=orthogonalEdgeStyle;rounded=0;orthogonalLoop=1;jettySize=auto;html=1;exitX=0.5;exitY=1;exitDx=0;exitDy=0;entryX=0.5;entryY=0;entryDx=0;entryDy=0;entryPerimeter=0;" edge="1" parent="1" source="-BIlthm5lZ2Xe3NpGr4l-20" target="-BIlthm5lZ2Xe3NpGr4l-21">
          <mxGeometry relative="1" as="geometry" />
        </mxCell>
        <mxCell id="-BIlthm5lZ2Xe3NpGr4l-47" style="edgeStyle=orthogonalEdgeStyle;rounded=0;orthogonalLoop=1;jettySize=auto;html=1;exitX=0.5;exitY=1;exitDx=0;exitDy=0;entryX=0.5;entryY=0;entryDx=0;entryDy=0;entryPerimeter=0;" edge="1" parent="1" source="-BIlthm5lZ2Xe3NpGr4l-18" target="-BIlthm5lZ2Xe3NpGr4l-23">
          <mxGeometry relative="1" as="geometry" />
        </mxCell>
        <mxCell id="-BIlthm5lZ2Xe3NpGr4l-71" style="edgeStyle=orthogonalEdgeStyle;rounded=0;orthogonalLoop=1;jettySize=auto;html=1;exitX=0.5;exitY=1;exitDx=0;exitDy=0;exitPerimeter=0;entryX=0.5;entryY=0;entryDx=0;entryDy=0;" edge="1" parent="1" source="-BIlthm5lZ2Xe3NpGr4l-68" target="-BIlthm5lZ2Xe3NpGr4l-70">
          <mxGeometry relative="1" as="geometry" />
        </mxCell>
        <mxCell id="-BIlthm5lZ2Xe3NpGr4l-68" value="MULAI" style="strokeWidth=2;html=1;shape=mxgraph.flowchart.terminator;whiteSpace=wrap;" vertex="1" parent="1">
          <mxGeometry x="320" y="1" width="240" height="80" as="geometry" />
        </mxCell>
        <mxCell id="-BIlthm5lZ2Xe3NpGr4l-69" value="SELESAI" style="strokeWidth=2;html=1;shape=mxgraph.flowchart.terminator;whiteSpace=wrap;" vertex="1" parent="1">
          <mxGeometry x="320" y="1481" width="240" height="80" as="geometry" />
        </mxCell>
        <mxCell id="-BIlthm5lZ2Xe3NpGr4l-70" value="SCAN QR CODE" style="rounded=0;whiteSpace=wrap;html=1;absoluteArcSize=1;arcSize=14;strokeWidth=2;" vertex="1" parent="1">
          <mxGeometry x="320" y="121" width="240" height="80" as="geometry" />
        </mxCell>
      </root>
    </mxGraphModel>
  </diagram>
</mxfile>
